<?xml version="1.0" standalone="no"?>
<!DOCTYPE svg PUBLIC "-//W3C//DTD SVG 1.1//EN" "http://www.w3.org/Graphics/SVG/1.1/DTD/svg11.dtd" >
<svg xmlns="http://www.w3.org/2000/svg">
<metadata>Generated by IcoMoon</metadata>
<defs>
<font id="icomoon" horiz-adv-x="1024">
<font-face units-per-em="1024" ascent="819" descent="-205" />
<missing-glyph horiz-adv-x="1024" />
<glyph unicode="&#x20;" d="" />
<glyph unicode="&#xff1;" glyph-name="uniFF11" d="M295 26v84h185.5v590l-190.5-52.5v89l288.5 81v-707.5h185.5v-84h-469z" />
<glyph unicode="&#xff2;" glyph-name="uniFF12" d="M250 26v85q291.5 270 348.5 338.75t57 143.75q0 64-39.75 100.5t-113.75 36.5q-109.5 0-210-88v100.5q97.5 69.5 225 69.5 111 0 174.75-56.75t63.75-152.25q0-59.5-26.25-113.5t-71.75-104.75-93.5-94.75l-194.5-178.5v-2h379v-84h-498.5z" />
<glyph unicode="&#xff3;" glyph-name="uniFF13" d="M269.5 55.5v101.5q89.5-62.5 190.5-62.5 84.5 0 135.25 39t50.75 105.5q0 71-59.5 108.75t-166.5 37.75h-67.5v82h64.5q97.5 0 149 35.5t51.5 101.5q0 59-39.75 93t-113.75 34q-84 0-163-55.5v93.5q83 43 187.5 43 107 0 169.75-52.25t62.75-132.25q0-149.5-162-196.5v-2q88-10 138.75-61t50.75-122.5q0-103.5-80-168t-211-64.5q-112.5 0-188 42z" />
<glyph unicode="&#xff4;" glyph-name="uniFF14" d="M684 227.5v-201.5h-96v201.5h-384v62.5l363.5 510h116.5v-494.5h106.5v-78h-106.5zM588 668q0 23 1 40h-2q-20-43.5-279-402.5h280v362.5z" />
<glyph unicode="&#xff5;" glyph-name="uniFF15" d="M286.5 45.5v100.5q90-51.5 173.5-51.5 88 0 140.75 45.75t52.75 119.25q0 71.5-54 112.5t-156 41q-34 0-130-6v393h402.5v-83h-310.5v-221q29.5 2 71.5 2 132.5 0 204.5-64t72-168.5q0-111.5-78.75-181.75t-213.75-70.25q-104 0-174.5 32z" />
<glyph unicode="&#xff6;" glyph-name="uniFF16" d="M732 791v-92q-62 32.5-134 32.5-110 0-175.75-88.75t-65.75-236.75h2q58.5 106.5 191.5 106.5 105 0 169.25-64.75t64.25-172.75q0-114.5-74-188t-186-73.5q-123 0-195.25 92.75t-72.25 261.75q0 204.5 94 324.5t245 120q79 0 137-21.5zM524.5 431.5q-71.5 0-117.75-45.75t-46.25-105.75q0-73 45.5-128.75t120.5-55.75q70.5 0 113.5 46.75t43 121.25q0 77-41.25 122.5t-117.25 45.5z" />
<glyph unicode="&#xff7;" glyph-name="uniFF17" d="M775 766.5l-320.5-740.5h-101l306 690h-416v84h531.5v-33.5z" />
<glyph unicode="&#xff8;" glyph-name="uniFF18" d="M424 431.5v3q-144.5 64-144.5 185.5 0 83.5 67.75 138t174.75 54.5q100.5 0 163-51t62.5-129.5q0-128.5-150.5-197.5v-3q177-58.5 177-207 0-96-73.25-153.5t-206.25-57.5q-107 0-175.75 57.5t-68.75 146.5q0 145.5 174 214zM513 474.5q135 52.5 135 146.5 0 52.5-36.25 81.5t-95.75 29q-57.5 0-97.25-30.75t-39.75-78.75q0-95 134-147.5zM506 386.5q-157-58.5-157-165 0-55 46-91t120-36q71.5 0 115.75 36t44.25 89q0 57.5-40.25 97t-128.75 70z" />
<glyph unicode="&#xff9;" glyph-name="uniFF19" d="M292 40.5v92q75-38 146.5-38 111 0 172.75 82.25t61.75 232.25h-2.5q-55.5-97.5-184-97.5-105 0-172.25 67.5t-67.25 173.5q0 113.5 74.5 186.75t192.5 73.25q121.5 0 189.75-90.5t68.25-264q0-213.5-88.75-329t-247.25-115.5q-79 0-144 27zM505 731.5q-67.5 0-112.75-46.75t-45.25-119.25q0-79.5 45-126.25t119-46.75q64 0 109.25 42.75t45.25 103.75q0 86.5-44.75 139.5t-115.75 53z" />
<glyph unicode="&#x4e08;" glyph-name="uni4E08" d="M982 717h-531q0-101-4-149h378q-15-211-45-369-30-157-64-191-33-33-78-33-30 0-104 31l-17 95 57-28q32-16 49-16 22 0 37 33t40 140q25 106 38 259h-295q-42-364-311-529l-67 66q149 80 226 227 76 147 76 464h-280v77h895v-77z" />
<glyph unicode="&#x4e1b;" glyph-name="uni4E1B" d="M940 26h-871v75h298v756h80v-755h119v755h77v-755h297v-76zM307 239l-77-33q-7 178-104 397l66 32q95-209 115-396zM880 607q-33-260-131-413l-66 39q106 150 127 400z" />
<glyph unicode="&#x4ebb;" glyph-name="uni4EBB" d="M965 56l-59-66q-279 140-392 412-101-241-380-409l-61 60q113 66 198 150 84 83 132 168 49 84 63 187 14 102 15 306h82q1-63-7-167t-8-165q0-43 53-143 52-100 140-187 88-86 224-146z" />
<glyph unicode="&#x4fe2;" glyph-name="uni4FE2" d="M338 855q-19-64-46-136l-28-66v-683h-77v544q-32-58-89-126l-65 51q150 178 232 445zM895 796h-517v74h517v-74zM963 659h-642v74h642v-74zM894 509h-517v75h517v-75zM894 363h-517v74h517v-74zM882-30h-75v60h-344v-60h-75v313h493zM807 97v120h-344v-120h344z" />
<glyph unicode="&#x5144;" glyph-name="uni5144" d="M822 746h-599v78h599v-78zM961 226q-29-206-128-206h-144q-104 0-104 129v345h-131q2-185-73-308-76-123-247-215l-56 77q157 79 225 180 67 101 67 266h-234v78h771v-77h-241v-356q0-41 38-41h121q13 0 24 20 11 21 33 133z" />
<glyph unicode="&#x516d;" glyph-name="uni516D" d="M979 449l-60-60q-89 66-175 188-85 122-120 232h-169v70h241q18-111 103-236 86-125 180-194zM407 812q-25-107-109-227-83-119-185-195l-61 60q219 158 281 396zM875 20l-77-36q-11 38-45 110l-289-23q-177-12-286-27l-32 85 115 9q127 172 188 408l79-26q-68-229-172-377l363 24q-56 90-109 140l75 34q126-120 190-321z" />
<glyph unicode="&#x5219;" glyph-name="uni5218" d="M522 664.5q-37-183-142-377 114-155 187-260l-69-53q-83 121-164 236-108-168-259-286-20 28-57 67 159 119 266 290-108 151-213 290l62 45q108-142 195-259 69 128 116 307h-422v73h276q-35 69-73 131l69 35q50-80 78-138l-55-28h275v-73h-70zM879 883.5h79v-819q0-130-119-131-53-1-160 2-6 41-15 89 81-10 138-10 77-1 77 75v794zM646 783.5h76v-632h-76v632z" />
<glyph unicode="&#x5344;" glyph-name="uni5344" d="M927 417h-368v-447h-81v447h-362v76h362v224q-119-23-298-37l-40 75q412 32 680 134l56-59q-122-55-317-96v-240h368v-77z" />
<glyph unicode="&#x53f9;" glyph-name="uni53F9" d="M907 61q0-86-103-86h-101l-27 85q36-4 125-4 25 0 25 25v689h-662v78h743v-787zM773 590h-659v77h659v-77zM664 112h-81v72h-274v-75h-80v380h434zM583 259v156h-274v-156h274z" />
<glyph unicode="&#x57cf;" glyph-name="uni57CE" d="M533-10.5q114 80.5 202.5 196.5-35 150.5-48.5 464.5h-259v-156h202q-2-176-7-305-5-123-121-123-39 0-74 1-6 33-17 78 44-5 79-5 58 0 61 68 5 97 5 218h-129q-3.5-179.5-29-279-31-118-117-230-28 29-61 57 82 105 108 206 25 97 25 317v225h331q-2.5 86-4 181h79q-1-96 1-181h247v-72h-244.5q9-235 32.5-377 70.5 113 121 254l74-35q-77.5-185-173-321.5 18.5-67.5 45-105.5 27-40 47-40 19 0 24 28 8 44 15 140 40-17 73-27-10-98-18-141-19-91-79-91-64 0-114 67-28 37-48.5 95.5-81-98.5-173.5-166.5-23 28-55 59zM8 203.5q56 13.5 123 31v342h-114v72h114v243h75v-243h108v-72h-108v-321q50 14.5 106 31 0-46 2-78-162-47-292-91zM797 851.5l46 48q63-47 124-101l-51-55q-55 56-119 108z" />
<glyph unicode="&#x5c0a;" glyph-name="uni5C0G" d="M242 672.5l82-29q-96-274-224-515-34 21-82 45 115 194 224 499zM688 634.5l75 36q127-231 248-486l-91-43q-122 283-232 493zM480 891.5h89v-829q0-130-141-130-56 0-149 3-7 44-17 94 96-9 147-9 71 0 71 64v807z" />
<glyph unicode="&#x5ddf;" glyph-name="uni5DDF" d="M879-18h-77v900h77v-900zM512 351l-70-36q-10 155-82 276v-211q2-234-213-406l-66 49q201 151 201 363v489h78v-273l63 28q75-123 89-279zM792 350l-75-25q-15 148-103 278v-572h-77v804h77v-225l65 26q82-106 113-286zM239 605q-12-135-109-283l-73 32q92 121 114 269z" />
<glyph unicode="&#x5e75;" glyph-name="uni5E75" d="M939 264h-353v-294h-81v294h-399v75h127v241h272v134h-211q-66-137-141-206l-65 52q133 118 189 340l66-31q-3-30-19-80h573v-75h-311v-133h261v-75h-261v-167h353v-75zM505 339v167h-193v-167h193z" />
<glyph unicode="&#x676e;" glyph-name="uni676D" d="M813 534.5v-470q0-46 40-46h37q34 0 41 58 8 60 13 163 33-15 73-29-11-115-18-161-14-101-102-101h-70q-88 0-88 112v406h-211v-86q0-176-35-272-37-102-135-193-28 30-61 56 95 83 126 168 31 80 31 240v155h359zM10 272.5q100 153 150 353h-134v69h135v200h73v-200h120v-69h-120v-157l43 40q71-65 130-130l-56-55q-50 61.5-117 130v-531h-73v515q-49.5-149.5-119-252-13 42-32 87zM378 737.5h586v-70h-586v70zM552 873.5l63 41q49-59 99-126l-67-46q-42 65-95 131z" />
<glyph unicode="&#x8d45;" glyph-name="uni8D45" d="M883 817q3-42-7-85t-55-113l-69 37q34 40 50 86h-299q-42-77-150-152l-53 60q127 76 180 238l69-24q-4-15-17-47h351zM283 767l-57-60q-49 72-131 122l47 47q91-40 141-109zM961 484l-52-66q-193 51-303 178-31-49-103-91-72-41-147-53v-1h414v-320h-78v245h-353v-245h-78v319h45l-31 44q139 38 208 86t99 139l72-16-13-40q42-60 109-101 66-41 211-78zM289 629q-28-88-156-211l-60 55q104 86 159 193zM552 344q0-213-110-286-111-72-311-80l-36 74q132 8 184 17 51 8 106 44 55 35 71 83 15 47 22 148h74zM880 39l-38-71q-121 78-318 120l35 66q197-38 321-115z" />
<glyph unicode="&#x9021;" glyph-name="uni9021" d="M931 483h-601v75h259v121h-121q-30-50-83-96l-67 51q100 76 136 216l73-25q-9-40-21-71h83v135h77v-135h195v-75h-194v-121h264v-75zM317 699l-66-50q-36 90-132 170l63 45q80-64 135-165zM968 99l-30-82h-483q-138 15-227 91l-138-112-58 60q67 39 169 128v282h-133v75h211v-377q46-43 83-57 37-15 90-15zM848 128h-78v50h-294v-50h-77v313h449v-313zM770 253v113h-294v-113h294z" />
<glyph unicode="&#x94b2;" glyph-name="uni94B2" d="M442 689h-202q-18-54-39-92h228v-74h-125v-106h137v-75h-137v-219l137 68v-83l-188-97-42 67q15 15 15 32v232h-148v75h148v105h-67q-25-38-58-73l-62 47q131 146 174 393l72-23q-8-55-23-102h180v-75zM985 106q-5-41-29-90-25-49-65-49-42 0-102 58-60 57-89 111-162-123-267-163l-54 62q168 67 278 169-37 80-51 182l-143-10-6 71 140 10q-6 83-5 110l-121-6-8 74 128 7v235h77v-231l239 16 6-72-244-17q0-18 5-110l255 16 6-71-253-18q5-42 41-131 102 114 111 130l63-42q-45-73-137-160 51-85 126-136 6 3 31 93zM862 718l-60-46q-50 86-121 129l48 45q97-56 133-128z" />
<glyph unicode="&#xff10;" glyph-name="uniFF10" d="M504 13.5q-124.5 0-193.5 99t-69 285q0 205 72.25 310t207.25 105q261.5 0 261.5-396.5 0-196.5-73.75-299.5t-204.75-103zM517 731.5q-175 0-175-329.5 0-307.5 172-307.5 80 0 124 79t44 234.5q0 163-40 243.25t-125 80.25z" />
</font>
</defs>
</svg>
